<mxfile modified="2021-12-22T07:06:54.054Z" host="app.diagrams.net" agent="5.0 (Macintosh; Intel Mac OS X 10_15_7) AppleWebKit/537.36 (KHTML, like Gecko) Chrome/96.0.4664.110 Safari/537.36" etag="hgZPbbKP0X48oym1QqwM" version="16.0.3" type="github">
  <diagram id="d1ab7348-05c3-a1e3-ca4d-12c340fd6b49" name="Page-1">
    <mxGraphModel dx="1090" dy="793" grid="1" gridSize="10" guides="1" tooltips="1" connect="1" arrows="1" fold="1" page="1" pageScale="1" pageWidth="1169" pageHeight="827" background="none" math="0" shadow="0">
      <root>
        <mxCell id="0" />
        <mxCell id="1" parent="0" />
        <mxCell id="FwzKtPki3mb1ld9PXNBR-415" value="" style="group" vertex="1" connectable="0" parent="1">
          <mxGeometry x="30" y="90" width="520" height="500" as="geometry" />
        </mxCell>
        <mxCell id="FwzKtPki3mb1ld9PXNBR-412" value="" style="whiteSpace=wrap;html=1;aspect=fixed;" vertex="1" parent="FwzKtPki3mb1ld9PXNBR-415">
          <mxGeometry width="496.8888888888889" height="496.8888888888889" as="geometry" />
        </mxCell>
        <mxCell id="FwzKtPki3mb1ld9PXNBR-413" value="&lt;meta charset=&quot;utf-8&quot;&gt;&lt;b style=&quot;font-weight: normal&quot; id=&quot;docs-internal-guid-d2ad3ce6-7fff-bb0f-2b52-ee0412647c6d&quot;&gt;&lt;img width=&quot;61px;&quot; height=&quot;30px;&quot; src=&quot;https://lh4.googleusercontent.com/3M0_QrC6NOvyVFvNuZ7Qsbdb1Xkd3erEcJI-ABMaz8Opn-za4dnpS1rptQpAAXjEYj_kRNltr24Ht6fb31hB9-uftv2vhH52vJ4IoNZTPnvXo3OxmNg4O5PWSajKk8VpVLnP8qtjHtrF&quot;&gt;&lt;/b&gt;" style="text;whiteSpace=wrap;html=1;" vertex="1" parent="FwzKtPki3mb1ld9PXNBR-415">
          <mxGeometry width="119.99999999999999" height="64.10256410256412" as="geometry" />
        </mxCell>
        <mxCell id="2" value="&lt;b&gt;Google &lt;/b&gt;Cloud Platform" style="fillColor=#F6F6F6;strokeColor=none;shadow=0;gradientColor=none;fontSize=14;align=left;spacing=10;fontColor=#717171;9E9E9E;verticalAlign=top;spacingTop=-4;fontStyle=0;spacingLeft=40;html=1;" parent="FwzKtPki3mb1ld9PXNBR-415" vertex="1">
          <mxGeometry x="296.89" width="200" height="220" as="geometry" />
        </mxCell>
        <mxCell id="3" value="" style="shape=mxgraph.gcp2.google_cloud_platform;fillColor=#F6F6F6;strokeColor=none;shadow=0;gradientColor=none;" parent="2" vertex="1">
          <mxGeometry width="23" height="20" relative="1" as="geometry">
            <mxPoint x="20" y="10" as="offset" />
          </mxGeometry>
        </mxCell>
        <mxCell id="FwzKtPki3mb1ld9PXNBR-416" value="&lt;meta charset=&quot;utf-8&quot;&gt;&lt;b style=&quot;font-weight: normal&quot; id=&quot;docs-internal-guid-316909c4-7fff-a354-a37e-04a39da19070&quot;&gt;&lt;img width=&quot;109px;&quot; height=&quot;38px;&quot; src=&quot;https://lh4.googleusercontent.com/LxayjPjzjKkCL0HYA65VXoyyoOscfMtLdCUFHOa9yM1X0BcX8T2q-nmVEjxp1F3qQI8b09Z7yQ7Oi-YrYqKAyorxqajZQehFD1gsuJcjzZGV7gm6len-y3f4YwtNdV7CPeT-UqFcx-w3&quot;&gt;&lt;/b&gt;" style="text;whiteSpace=wrap;html=1;" vertex="1" parent="2">
          <mxGeometry x="52.38095238095238" y="60.00333333333333" width="68.42105263157896" height="40" as="geometry" />
        </mxCell>
        <mxCell id="FwzKtPki3mb1ld9PXNBR-417" value="&lt;meta charset=&quot;utf-8&quot;&gt;&lt;b style=&quot;font-weight: normal&quot; id=&quot;docs-internal-guid-be7de013-7fff-e863-e018-794752b9adc6&quot;&gt;&lt;img width=&quot;99px;&quot; height=&quot;38px;&quot; src=&quot;https://lh4.googleusercontent.com/p6YRfAzZ8uXK-DK0cqEtbSDvuzZEOvNlf43y3y0LMpIiRHml8wVQ-_PGyCu_Ihr4Py0xikhgj9YvjcO5uYjP1bFE-3CY24jQOp2UOvnxXTiE6FW6G4hS2_1EoFUIKpSK_PI-m5OdvvJZ&quot;&gt;&lt;/b&gt;" style="text;whiteSpace=wrap;html=1;" vertex="1" parent="2">
          <mxGeometry x="57.649047619047636" y="139.99666666666667" width="63.15789473684211" height="40" as="geometry" />
        </mxCell>
      </root>
    </mxGraphModel>
  </diagram>
</mxfile>
